<svg xmlns="http://www.w3.org/2000/svg" xmlns:xlink="http://www.w3.org/1999/xlink" style="display:none">
  <defs>
    <!-- salonkit-logo: Modern S-monogram with booking dot -->
    <g id="salonkit-logo">
      <svg xmlns="http://www.w3.org/2000/svg" viewBox="0 0 24 24" fill="none" stroke="currentColor" stroke-width="1.5" stroke-linecap="round" stroke-linejoin="round">
        <path d="M5 7.5c0-1.5 1-3 3.5-3S12 8 12 10s-1 3.5-3.5 3.5S5 13 5 14.5 6 18 8.5 18s3.5-1.5 3.5-3" />
        <path d="M15 6c0-1.5 1-3 3.5-3S22 5 22 7.5s-1 4-3.5 4" />
        <circle cx="18.5" cy="17.5" r="3.5" fill="currentColor" stroke="none" />
      </g>
    </g>

    <!-- salonkit-scissors: Modern scissor silhouette -->
    <g id="salonkit-scissors">
      <svg xmlns="http://www.w3.org/2000/svg" viewBox="0 0 24 24" fill="none" stroke="currentColor" stroke-width="1.5" stroke-linecap="round" stroke-linejoin="round">
        <circle cx="6" cy="6" r="2.5" />
        <circle cx="6" cy="18" r="2.5" />
        <path d="M8.5 6L20 18" />
        <path d="M20 6L8.5 18" />
      </g>
    </g>

    <!-- salonkit-professional: Two people -->
    <g id="salonkit-professional">
      <svg xmlns="http://www.w3.org/2000/svg" viewBox="0 0 24 24" fill="none" stroke="currentColor" stroke-width="1.5" stroke-linecap="round" stroke-linejoin="round">
        <path d="M17 21v-2a4 4 0 0 0-4-4H5a4 4 0 0 0-4 4v2" />
        <circle cx="9" cy="7" r="4" />
        <path d="M23 21v-2a4 4 0 0 0-3.5-3.9" />
        <path d="M16 3.1a4 4 0 0 1 0 7.75" />
      </g>
    </g>

    <!-- salonkit-calendar: Clean calendar -->
    <g id="salonkit-calendar">
      <svg xmlns="http://www.w3.org/2000/svg" viewBox="0 0 24 24" fill="none" stroke="currentColor" stroke-width="1.5" stroke-linecap="round" stroke-linejoin="round">
        <rect x="3" y="4" width="18" height="18" rx="2" ry="2" />
        <line x1="16" y1="2" x2="16" y2="6" />
        <line x1="8" y1="2" x2="8" y2="6" />
        <line x1="3" y1="10" x2="21" y2="10" />
        <circle cx="12" cy="15" r="1.5" fill="currentColor" stroke="none" />
      </g>
    </g>

    <!-- salonkit-clock: Modern clock -->
    <g id="salonkit-clock">
      <svg xmlns="http://www.w3.org/2000/svg" viewBox="0 0 24 24" fill="none" stroke="currentColor" stroke-width="1.5" stroke-linecap="round" stroke-linejoin="round">
        <circle cx="12" cy="12" r="9" />
        <polyline points="12 7 12 12 15 15" />
      </g>
    </g>

    <!-- salonkit-confirmed: Checkmark circle -->
    <g id="salonkit-confirmed">
      <svg xmlns="http://www.w3.org/2000/svg" viewBox="0 0 24 24" fill="none" stroke="currentColor" stroke-width="1.5" stroke-linecap="round" stroke-linejoin="round">
        <circle cx="12" cy="12" r="10" />
        <path d="M8 12l3 3 5-6" />
      </g>
    </g>

    <!-- salonkit-arrow-left -->
    <g id="salonkit-arrow-left">
      <svg xmlns="http://www.w3.org/2000/svg" viewBox="0 0 24 24" fill="none" stroke="currentColor" stroke-width="1.5" stroke-linecap="round" stroke-linejoin="round">
        <line x1="19" y1="12" x2="5" y2="12" />
        <polyline points="11 18 5 12 11 6" />
      </g>
    </g>

    <!-- salonkit-arrow-right -->
    <g id="salonkit-arrow-right">
      <svg xmlns="http://www.w3.org/2000/svg" viewBox="0 0 24 24" fill="none" stroke="currentColor" stroke-width="1.5" stroke-linecap="round" stroke-linejoin="round">
        <line x1="5" y1="12" x2="19" y2="12" />
        <polyline points="13 18 19 12 13 6" />
      </g>
    </g>

    <!-- salonkit-chevron-left -->
    <g id="salonkit-chevron-left">
      <svg xmlns="http://www.w3.org/2000/svg" viewBox="0 0 24 24" fill="none" stroke="currentColor" stroke-width="1.5" stroke-linecap="round" stroke-linejoin="round">
        <polyline points="15 18 9 12 15 6" />
      </g>
    </g>

    <!-- salonkit-chevron-right -->
    <g id="salonkit-chevron-right">
      <svg xmlns="http://www.w3.org/2000/svg" viewBox="0 0 24 24" fill="none" stroke="currentColor" stroke-width="1.5" stroke-linecap="round" stroke-linejoin="round">
        <polyline points="9 18 15 12 9 6" />
      </g>
    </g>

    <!-- salonkit-spa: Lotus -->
    <g id="salonkit-spa">
      <svg xmlns="http://www.w3.org/2000/svg" viewBox="0 0 24 24" fill="none" stroke="currentColor" stroke-width="1.5" stroke-linecap="round" stroke-linejoin="round">
        <path d="M12 22c-4-3-8-6-8-11a8 8 0 0 1 16 0c0 5-4 8-8 11z" />
        <path d="M12 22c-2-2-4-5-4-8" />
        <path d="M12 22c2-2 4-5 4-8" />
      </g>
    </g>

    <!-- salonkit-nails: Hand -->
    <g id="salonkit-nails">
      <svg xmlns="http://www.w3.org/2000/svg" viewBox="0 0 24 24" fill="none" stroke="currentColor" stroke-width="1.5" stroke-linecap="round" stroke-linejoin="round">
        <path d="M14 2v6a2 2 0 0 0 2 2h2a2 2 0 0 0 2-2V3" />
        <path d="M10 2v7a2 2 0 0 1-2 2H6a2 2 0 0 1-2-2V3" />
        <path d="M6 2h12" />
        <path d="M8 13v5a2 2 0 0 0 2 2h4a2 2 0 0 0 2-2v-5" />
        <path d="M8 11v2" />
        <path d="M16 11v2" />
      </g>
    </g>

    <!-- salonkit-massage: Hands -->
    <g id="salonkit-massage">
      <svg xmlns="http://www.w3.org/2000/svg" viewBox="0 0 24 24" fill="none" stroke="currentColor" stroke-width="1.5" stroke-linecap="round" stroke-linejoin="round">
        <path d="M18 11V6a2 2 0 0 0-2-2v0a2 2 0 0 0-2 2v4" />
        <path d="M10 11V6a2 2 0 0 0-2-2v0a2 2 0 0 0-2 2v4" />
        <path d="M18 11V8a1 1 0 0 1 1-1h1a2 2 0 0 1 2 2v5a6 6 0 0 1-6 6h-5a4 4 0 0 1-4-4v-1" />
      </g>
    </g>

    <!-- salonkit-skincare: Face -->
    <g id="salonkit-skincare">
      <svg xmlns="http://www.w3.org/2000/svg" viewBox="0 0 24 24" fill="none" stroke="currentColor" stroke-width="1.5" stroke-linecap="round" stroke-linejoin="round">
        <circle cx="12" cy="12" r="9" />
        <path d="M9 10h.01" />
        <path d="M15 10h.01" />
        <path d="M9 15a3.5 3.5 0 0 0 6 0" />
        <path d="M3 7.5C5 5 7 4 9 4" />
        <path d="M21 7.5C19 5 17 4 15 4" />
      </g>
    </g>

    <!-- salonkit-phone -->
    <g id="salonkit-phone">
      <svg xmlns="http://www.w3.org/2000/svg" viewBox="0 0 24 24" fill="none" stroke="currentColor" stroke-width="1.5" stroke-linecap="round" stroke-linejoin="round">
        <path d="M22 16.92v3a2 2 0 0 1-2.18 2 19.8 19.8 0 0 1-8.63-3.07 19.5 19.5 0 0 1-6-6 19.8 19.8 0 0 1-3.07-8.67A2 2 0 0 1 4.11 2h3a2 2 0 0 1 2 1.72 12.8 12.8 0 0 0 .7 2.81 2 2 0 0 1-.45 2.11L8.09 9.91a16 16 0 0 0 6 6l1.27-1.27a2 2 0 0 1 2.11-.45 12.8 12.8 0 0 0 2.81.7A2 2 0 0 1 22 16.92z" />
      </g>
    </g>

    <!-- salonkit-email: Envelope -->
    <g id="salonkit-email">
      <svg xmlns="http://www.w3.org/2000/svg" viewBox="0 0 24 24" fill="none" stroke="currentColor" stroke-width="1.5" stroke-linecap="round" stroke-linejoin="round">
        <rect x="2" y="4" width="20" height="16" rx="2" />
        <path d="M22 4L12 13 2 4" />
      </g>
    </g>

    <!-- salonkit-user: Single person -->
    <g id="salonkit-user">
      <svg xmlns="http://www.w3.org/2000/svg" viewBox="0 0 24 24" fill="none" stroke="currentColor" stroke-width="1.5" stroke-linecap="round" stroke-linejoin="round">
        <path d="M20 21v-2a4 4 0 0 0-4-4H8a4 4 0 0 0-4 4v2" />
        <circle cx="12" cy="7" r="4" />
      </g>
    </g>

    <!-- salonkit-notes: Document -->
    <g id="salonkit-notes">
      <svg xmlns="http://www.w3.org/2000/svg" viewBox="0 0 24 24" fill="none" stroke="currentColor" stroke-width="1.5" stroke-linecap="round" stroke-linejoin="round">
        <path d="M14 2H6a2 2 0 0 0-2 2v16a2 2 0 0 0 2 2h12a2 2 0 0 0 2-2V8z" />
        <polyline points="14 2 14 8 20 8" />
        <line x1="9" y1="13" x2="15" y2="13" />
        <line x1="9" y1="17" x2="13" y2="17" />
      </g>
    </g>

    <!-- salonkit-star -->
    <g id="salonkit-star">
      <svg xmlns="http://www.w3.org/2000/svg" viewBox="0 0 24 24" fill="none" stroke="currentColor" stroke-width="1.5" stroke-linecap="round" stroke-linejoin="round">
        <polygon points="12 2 15.09 8.26 22 9.27 17 14.14 18.18 21.02 12 17.77 5.82 21.02 7 14.14 2 9.27 8.91 8.26 12 2" />
      </g>
    </g>

    <!-- salonkit-location: Map pin -->
    <g id="salonkit-location">
      <svg xmlns="http://www.w3.org/2000/svg" viewBox="0 0 24 24" fill="none" stroke="currentColor" stroke-width="1.5" stroke-linecap="round" stroke-linejoin="round">
        <path d="M21 10c0 7-9 13-9 13s-9-6-9-13a9 9 0 0 1 18 0z" />
        <circle cx="12" cy="10" r="3" />
      </g>
    </g>

    <!-- salonkit-dollar: Dollar circle -->
    <g id="salonkit-dollar">
      <svg xmlns="http://www.w3.org/2000/svg" viewBox="0 0 24 24" fill="none" stroke="currentColor" stroke-width="1.5" stroke-linecap="round" stroke-linejoin="round">
        <circle cx="12" cy="12" r="9" />
        <line x1="12" y1="6" x2="12" y2="18" />
        <path d="M15 9.5c0-1.5-1.5-2.5-3-2.5s-3 1-3 2.5 1.5 2.5 3 2.5 3 1 3 2.5-1.5 2.5-3 2.5-3-1-3-2.5" />
      </g>
    </g>

    <!-- salonkit-sun: Sun/light -->
    <g id="salonkit-sun">
      <svg xmlns="http://www.w3.org/2000/svg" viewBox="0 0 24 24" fill="none" stroke="currentColor" stroke-width="1.5" stroke-linecap="round" stroke-linejoin="round">
        <circle cx="12" cy="12" r="4" />
        <path d="M12 2v2" />
        <path d="M12 20v2" />
        <path d="M4.93 4.93l1.41 1.41" />
        <path d="M17.66 17.66l1.41 1.41" />
        <path d="M2 12h2" />
        <path d="M20 12h2" />
        <path d="M6.34 17.66l-1.41 1.41" />
        <path d="M19.07 4.93l-1.41 1.41" />
      </g>
    </g>
  </defs>
</svg>
